<?xml version="1.0" encoding="UTF-8"?>
<svg version="1.1" xmlns="http://www.w3.org/2000/svg" width="500" height="500">
<path d="M0 0 C165 0 330 0 500 0 C500 165 500 330 500 500 C335 500 170 500 0 500 C0 335 0 170 0 0 Z " fill="#FEFEFE" transform="translate(0,0)"/>
<path d="M0 0 C121.39158576 0 121.39158576 0 137 7 C138.62615234 7.70576172 138.62615234 7.70576172 140.28515625 8.42578125 C162.21505066 18.60144654 180.41793306 37.22389382 189 60 C197.19194759 84.37142736 195.81454729 108.74236184 185 132 C181.25785863 139.48428274 176.88458267 145.68776491 171.11328125 151.74609375 C168.9566278 153.97278977 168.9566278 153.97278977 167.08984375 156.484375 C152.21002104 174.39578775 127.88090428 180.5409828 106 184 C106.63164062 184.80179688 107.26328125 185.60359375 107.9140625 186.4296875 C113.29772105 193.26971568 118.65996163 200.12585558 124 207 C128.1521389 212.34488207 132.31306821 217.68232499 136.5 223 C142.43284029 230.53675449 148.31721987 238.11097959 154.20166016 245.68554688 C157.13299361 249.45815632 160.06656343 253.22902578 163 257 C166.53631149 261.54597846 170.07207843 266.09237548 173.60546875 270.640625 C174.19932373 271.40479736 174.79317871 272.16896973 175.4050293 272.95629883 C176.58255166 274.47154641 177.75980291 275.98700473 178.93676758 277.50268555 C181.68288854 281.03564054 184.43805764 284.56057644 187.21875 288.06640625 C187.72124268 288.70094727 188.22373535 289.33548828 188.74145508 289.98925781 C189.67098129 291.16124865 190.60291469 292.3313365 191.5378418 293.49902344 C193.95524945 296.54793828 196.03060376 299.64895527 198 303 C192.2021927 303.3235469 186.40971913 303.55817315 180.60498047 303.71411133 C178.63529908 303.77914341 176.66623712 303.86761327 174.69873047 303.98071289 C158.8812262 304.86658933 158.8812262 304.86658933 154.19262695 301.82910156 C150.60162271 298.4210385 148.36552429 294.30576858 146 290 C144.84605237 288.39332138 143.66666252 286.80434563 142.453125 285.2421875 C141.38405653 283.78745691 140.31635815 282.3317185 139.25 280.875 C138.66202637 280.07497559 138.07405273 279.27495117 137.46826172 278.45068359 C135.06425049 275.17946321 132.6635191 271.90585106 130.26464844 268.63085938 C122.84168799 258.49900588 115.31706439 248.45659682 107.68017578 238.48486328 C103.63645326 233.19056574 99.69933923 227.84302813 95.87060547 222.39208984 C92.00695728 216.92969068 87.94065281 211.62544232 83.875 206.3125 C74.63181566 194.22385214 74.63181566 194.22385214 71 189.3125 C70.401875 188.50425781 69.80375 187.69601562 69.1875 186.86328125 C68 185 68 185 68 183 C55.79 183 43.58 183 31 183 C31 222.6 31 262.2 31 303 C20.77 303 10.54 303 0 303 C0 203.01 0 103.02 0 0 Z " fill="#9B252A" transform="translate(71,102)"/>
<path d="M0 0 C12.87 -0.0825 25.74 -0.165 39 -0.25 C43.03089844 -0.28641602 47.06179687 -0.32283203 51.21484375 -0.36035156 C56.22070312 -0.37841797 56.22070312 -0.37841797 58.58032227 -0.3817749 C60.19299769 -0.38782974 61.80565756 -0.40171086 63.41821289 -0.42230225 C82.25766771 -0.65038392 99.53699179 2.16469641 113.68359375 15.625 C127.35526601 29.64249871 131.44402577 44.9876566 131.43603516 64.05859375 C131.28414539 73.3017999 130.02930285 80.65205606 126 89 C125.5771875 89.89074219 125.154375 90.78148437 124.71875 91.69921875 C117.31780302 105.4038793 104.99738348 116.36798058 90.13392639 121.15505981 C78.57057709 124.27266287 66.66577941 124.2797748 54.78515625 124.1953125 C53.37072916 124.19236037 51.95629985 124.19032717 50.54187012 124.18920898 C45.38204607 124.17885716 40.22226924 124.15093599 35.0625 124.125 C17.7065625 124.063125 17.7065625 124.063125 0 124 C0 83.08 0 42.16 0 0 Z " fill="#FEFDFD" transform="translate(102,132)"/>
<path d="M0 0 C10.23 0 20.46 0 31 0 C31 89.76 31 179.52 31 272 C66.97 272 102.94 272 140 272 C140 282.56 140 293.12 140 304 C93.8 304 47.6 304 0 304 C0 203.68 0 103.36 0 0 Z " fill="#9B252A" transform="translate(314,102)"/>
</svg>
